<?xml version="1.0" encoding="UTF-8" standalone="no"?>
<!DOCTYPE svg PUBLIC "-//W3C//DTD SVG 1.1//EN" "http://www.w3.org/Graphics/SVG/1.1/DTD/svg11.dtd">
<!--Generated by Intaglio, www.PurgatoryDesign.com-->
<svg version="1.1" viewBox="0,0,559,783" width="559" height="783" xmlns="http://www.w3.org/2000/svg" xmlns:xlink="http://www.w3.org/1999/xlink"><path d="M126.167,174.43 C119.917,174.43,113.667,177.271,113.667,177.271 L113.667,155.017 L105.618,155.017 L105.618,222.726 C105.618,222.726,115.75,223.768,121.243,223.768 C137.91,223.768,143.591,214.961,143.591,198.294 C143.591,183.521,138.572,174.43,126.167,174.43 Z M121.148,216.666 C118.781,216.666,113.667,216.287,113.667,216.287 L113.667,183.9 C113.667,183.9,119.065,181.627,125.315,181.627 C132.796,181.627,135.353,188.446,135.353,198.389 C135.353,208.616,133.175,216.666,121.148,216.666 Z M156.025,222.726 L163.98,222.726 L163.98,155.017 L156.025,155.017 L156.025,222.726 Z M196.758,174.43 C181.512,174.43,176.587,183.427,176.587,198.578 C176.587,214.393,181.038,223.768,196.758,223.768 C212.288,223.768,216.644,213.825,216.644,198.673 C216.644,183.711,211.341,174.43,196.758,174.43 Z M196.758,216.76 C186.72,216.76,184.826,210.131,184.826,198.578 C184.826,187.215,187.572,181.438,196.758,181.438 C205.47,181.438,208.5,187.688,208.5,198.673 C208.5,209.563,206.701,216.76,196.758,216.76 Z M246.691,245.454 C258.907,245.454,267.714,240.435,267.714,229.26 C267.714,218.56,262.127,215.719,249.153,215.719 C239.399,215.719,238.642,215.15,238.642,211.647 C238.642,210.416,240.252,206.438,240.252,206.438 C241.199,206.628,243.377,206.817,244.324,206.817 C255.593,206.817,262.411,202.271,262.411,190.718 C262.411,186.552,260.991,183.805,259.475,182.006 L267.809,182.006 L267.809,175.377 L253.32,175.661 C253.32,175.661,248.775,174.43,244.608,174.43 C234.759,174.43,226.994,180.018,226.994,190.718 C226.994,198.673,230.498,202.556,234.286,204.828 C234.286,204.828,230.971,210.605,230.971,212.499 C230.971,215.435,231.918,217.802,233.718,219.033 C229.267,222.442,226.331,225.757,226.331,230.87 C226.331,241.666,233.907,245.454,246.691,245.454 Z M248.49,222.632 C256.066,222.632,259.57,223.579,259.57,229.639 C259.57,235.416,255.025,238.351,246.786,238.351 C238.831,238.351,234.286,235.984,234.286,230.113 C234.286,226.704,236.085,224.715,239.115,222.158 C239.115,222.158,245.271,222.632,248.49,222.632 Z M244.324,200.283 C238.074,200.283,235.043,196.874,235.043,190.718 C235.043,184.752,238.263,181.154,244.513,181.154 C251.142,181.154,254.456,184.279,254.456,190.718 C254.456,197.347,250.763,200.283,244.324,200.283 Z M286.302,222.726 L286.302,183.616 C286.302,183.616,293.026,179.639,300.128,179.639 C309.314,179.639,310.829,185.321,310.829,198.2 L310.829,222.726 L316.511,222.726 L316.511,198.105 C316.511,181.438,313.575,174.525,300.791,174.525 C293.594,174.525,286.302,178.786,286.302,178.786 L286.302,175.377 L280.62,175.377 L280.62,222.726 L286.302,222.726 Z M346.21,174.525 C331.532,174.525,326.702,182.48,326.702,198.294 C326.702,215.245,330.964,223.673,346.21,223.673 C361.362,223.673,365.434,214.393,365.434,198.389 C365.434,182.764,359.941,174.525,346.21,174.525 Z M346.21,218.654 C334.752,218.654,332.479,211.741,332.479,198.294 C332.479,185.131,335.888,179.544,346.21,179.544 C355.869,179.544,359.563,185.794,359.563,198.389 C359.563,210.984,357.669,218.654,346.21,218.654 Z M382.347,222.726 L382.347,183.616 C382.347,183.616,389.07,179.639,396.173,179.639 C405.358,179.639,406.874,185.321,406.874,198.2 L406.874,222.726 L412.555,222.726 L412.555,198.105 C412.555,181.438,409.62,174.525,396.836,174.525 C389.639,174.525,382.347,178.786,382.347,178.786 L382.347,175.377 L376.665,175.377 L376.665,222.726 L382.347,222.726 Z M441.213,218.56 C431.365,218.56,428.524,210.984,428.429,201.419 L459.774,201.419 L459.964,196.874 C459.964,181.343,453.335,174.525,441.781,174.525 C430.228,174.525,422.652,182.006,422.652,199.241 C422.652,214.109,427.293,223.673,440.929,223.673 C448.505,223.673,458.259,222.347,458.259,222.347 L458.07,217.707 C458.07,217.707,447.937,218.56,441.213,218.56 Z M428.429,196.779 C428.429,184.468,433.922,179.449,441.781,179.449 C450.02,179.449,454.282,184.279,454.282,196.779 L428.429,196.779 Z"/><path d="M284.741,150.286 L284.741,148.895 L282.051,148.895 L282.051,146.075 L280.493,146.075 L280.493,148.895 L279.25,148.895 L279.25,150.286 L280.493,150.286 L280.493,154.942 C280.493,157.428,281.235,158.355,283.108,158.355 C283.758,158.355,284.852,158.151,284.852,158.151 L284.778,156.853 C284.778,156.853,283.813,156.945,283.294,156.945 C282.292,156.945,282.051,156.278,282.051,154.534 L282.051,150.286 L284.741,150.286 Z M290.266,156.964 C288.56,156.964,288.003,155.758,288.003,154.163 L293.846,154.163 L293.939,152.994 C293.939,150.138,292.659,148.691,290.248,148.691 C287.836,148.691,286.408,150.323,286.408,153.588 C286.408,156.574,287.391,158.355,290.155,158.355 C291.769,158.355,293.605,158.003,293.605,158.003 L293.568,156.797 C293.568,156.797,291.583,156.964,290.266,156.964 Z M287.985,152.939 C288.003,150.954,288.82,150.026,290.248,150.026 C291.695,150.026,292.363,150.917,292.363,152.939 L287.985,152.939 Z M299.668,148.691 C296.997,148.691,295.866,150.212,295.866,153.365 C295.866,156.778,296.812,158.355,299.65,158.355 C300.707,158.355,302.154,158.114,302.154,158.114 L302.098,156.778 C302.098,156.778,300.744,156.908,300.039,156.908 C297.98,156.908,297.461,155.777,297.461,153.365 C297.461,151.121,298.091,150.138,300.039,150.138 C300.744,150.138,302.08,150.286,302.08,150.286 L302.135,148.951 C302.135,148.951,300.744,148.691,299.668,148.691 Z M306.102,158.151 L306.102,150.62 C306.102,150.62,307.419,150.119,308.458,150.119 C309.998,150.119,310.258,151.232,310.258,153.328 L310.258,158.151 L311.834,158.151 L311.834,153.31 C311.834,150.212,311.185,148.691,308.718,148.691 C307.586,148.691,306.102,149.284,306.102,149.284 L306.102,144.888 L304.526,144.888 L304.526,158.151 L306.102,158.151 Z M321.012,158.151 L321.012,150.75 C321.012,150.75,322.255,150.119,323.386,150.119 C324.926,150.119,325.186,151.251,325.186,153.347 L325.186,158.151 L326.744,158.151 L326.744,153.328 C326.744,150.212,326.113,148.691,323.646,148.691 C322.403,148.691,321.012,149.47,321.012,149.47 L321.012,148.895 L319.435,148.895 L319.435,158.151 L321.012,158.151 Z M333.084,156.964 C331.378,156.964,330.821,155.758,330.821,154.163 L336.664,154.163 L336.757,152.994 C336.757,150.138,335.477,148.691,333.066,148.691 C330.654,148.691,329.226,150.323,329.226,153.588 C329.226,156.574,330.209,158.355,332.973,158.355 C334.587,158.355,336.423,158.003,336.423,158.003 L336.386,156.797 C336.386,156.797,334.401,156.964,333.084,156.964 Z M330.803,152.939 C330.821,150.954,331.638,150.026,333.066,150.026 C334.513,150.026,335.181,150.917,335.181,152.939 L330.803,152.939 Z M338.164,148.895 L340.242,158.151 L342.931,158.151 L344.657,151.158 L346.363,158.151 L349.071,158.151 L351.167,148.895 L349.609,148.895 L347.884,156.741 L347.457,156.741 L345.491,149.062 L343.84,149.062 L341.874,156.741 L341.429,156.741 L339.722,148.895 L338.164,148.895 Z M359.344,149.062 C359.344,149.062,357.414,148.691,356.042,148.691 C354.391,148.691,352.74,149.414,352.74,151.455 C352.74,153.254,353.871,153.736,355.968,154.126 C357.674,154.423,358.064,154.627,358.064,155.48 C358.064,156.612,357.377,156.964,355.968,156.964 C355.022,156.964,352.925,156.667,352.925,156.667 L352.851,157.984 C352.851,157.984,354.892,158.355,356.097,158.355 C358.212,158.355,359.64,157.613,359.64,155.424 C359.64,153.644,358.787,153.106,356.431,152.716 C354.743,152.438,354.335,152.141,354.335,151.399 C354.335,150.434,355.096,150.082,356.134,150.082 C357.21,150.082,359.306,150.36,359.306,150.36 L359.344,149.062 Z M371.1,150.286 L371.1,148.895 L368.41,148.895 L368.41,146.075 L366.852,146.075 L366.852,148.895 L365.609,148.895 L365.609,150.286 L366.852,150.286 L366.852,154.942 C366.852,157.428,367.594,158.355,369.468,158.355 C370.117,158.355,371.211,158.151,371.211,158.151 L371.137,156.853 C371.137,156.853,370.172,156.945,369.653,156.945 C368.651,156.945,368.41,156.278,368.41,154.534 L368.41,150.286 L371.1,150.286 Z M374.975,158.151 L374.975,150.62 C374.975,150.62,376.292,150.119,377.331,150.119 C378.87,150.119,379.13,151.232,379.13,153.328 L379.13,158.151 L380.707,158.151 L380.707,153.31 C380.707,150.212,380.057,148.691,377.59,148.691 C376.459,148.691,374.975,149.284,374.975,149.284 L374.975,144.888 L373.398,144.888 L373.398,158.151 L374.975,158.151 Z M390.312,151.733 C390.312,149.6,389.31,148.691,387.381,148.691 C385.953,148.691,383.746,149.062,383.746,149.062 L383.801,150.379 C383.801,150.379,385.749,150.138,387.307,150.138 C388.253,150.138,388.754,150.639,388.754,151.714 L388.754,152.456 L386.176,152.698 C384.358,152.846,383.282,153.699,383.282,155.48 C383.282,157.205,384.413,158.355,385.971,158.355 C387.567,158.355,389.014,157.632,389.014,157.632 C389.533,158.114,390.145,158.337,391.277,158.337 L391.369,157.001 C390.794,156.908,390.461,156.723,390.312,156.111 L390.312,151.733 Z M388.754,153.662 L388.754,156.5 C388.754,156.5,387.455,157.02,386.157,157.02 C385.396,157.02,384.877,156.352,384.877,155.443 C384.877,154.571,385.322,153.922,386.342,153.848 L388.754,153.662 Z M397.952,150.286 L397.952,148.895 L395.262,148.895 L395.262,146.075 L393.704,146.075 L393.704,148.895 L392.461,148.895 L392.461,150.286 L393.704,150.286 L393.704,154.942 C393.704,157.428,394.446,158.355,396.319,158.355 C396.968,158.355,398.063,158.151,398.063,158.151 L397.989,156.853 C397.989,156.853,397.024,156.945,396.505,156.945 C395.503,156.945,395.262,156.278,395.262,154.534 L395.262,150.286 L397.952,150.286 Z M398.784,149.526 L400.231,149.526 L400.287,145.259 L398.747,145.259 L398.784,149.526 Z M408.188,149.062 C408.188,149.062,406.259,148.691,404.887,148.691 C403.236,148.691,401.585,149.414,401.585,151.455 C401.585,153.254,402.716,153.736,404.812,154.126 C406.519,154.423,406.908,154.627,406.908,155.48 C406.908,156.612,406.222,156.964,404.812,156.964 C403.866,156.964,401.77,156.667,401.77,156.667 L401.696,157.984 C401.696,157.984,403.736,158.355,404.942,158.355 C407.057,158.355,408.485,157.613,408.485,155.424 C408.485,153.644,407.632,153.106,405.276,152.716 C403.588,152.438,403.18,152.141,403.18,151.399 C403.18,150.434,403.94,150.082,404.979,150.082 C406.055,150.082,408.151,150.36,408.151,150.36 L408.188,149.062 Z M414.454,148.895 L416.532,158.151 L419.221,158.151 L420.946,151.158 L422.653,158.151 L425.361,158.151 L427.457,148.895 L425.899,148.895 L424.174,156.741 L423.747,156.741 L421.781,149.062 L420.13,149.062 L418.164,156.741 L417.719,156.741 L416.012,148.895 L414.454,148.895 Z M432.87,148.691 C429.883,148.691,428.918,150.453,428.918,153.421 C428.918,156.519,429.79,158.355,432.87,158.355 C435.912,158.355,436.765,156.407,436.765,153.44 C436.765,150.509,435.726,148.691,432.87,148.691 Z M432.87,156.982 C430.903,156.982,430.532,155.684,430.532,153.421 C430.532,151.195,431.07,150.064,432.87,150.064 C434.576,150.064,435.17,151.288,435.17,153.44 C435.17,155.573,434.817,156.982,432.87,156.982 Z M439.303,158.151 L440.861,158.151 L440.861,151.492 C440.861,151.492,442.178,150.676,443.848,150.342 L443.848,148.691 C442.197,149.025,440.861,150.045,440.861,150.045 L440.861,148.895 L439.303,148.895 L439.303,158.151 Z M450.357,150.286 L450.357,148.895 L447.667,148.895 L447.667,146.075 L446.109,146.075 L446.109,148.895 L444.866,148.895 L444.866,150.286 L446.109,150.286 L446.109,154.942 C446.109,157.428,446.851,158.355,448.725,158.355 C449.374,158.355,450.468,158.151,450.468,158.151 L450.394,156.853 C450.394,156.853,449.429,156.945,448.91,156.945 C447.908,156.945,447.667,156.278,447.667,154.534 L447.667,150.286 L450.357,150.286 Z M454.232,158.151 L454.232,150.62 C454.232,150.62,455.549,150.119,456.587,150.119 C458.127,150.119,458.387,151.232,458.387,153.328 L458.387,158.151 L459.964,158.151 L459.964,153.31 C459.964,150.212,459.314,148.691,456.847,148.691 C455.716,148.691,454.232,149.284,454.232,149.284 L454.232,144.888 L452.655,144.888 L452.655,158.151 L454.232,158.151 Z"/></svg>
